<?xml version="1.0" standalone="no"?><!DOCTYPE svg PUBLIC "-//W3C//DTD SVG 1.1//EN" "http://www.w3.org/Graphics/SVG/1.1/DTD/svg11.dtd"><svg t="1718178754419" class="icon" viewBox="0 0 1024 1024" version="1.1" xmlns="http://www.w3.org/2000/svg" p-id="2064" xmlns:xlink="http://www.w3.org/1999/xlink" width="200" height="200"><path d="M901.12 860.16l-126.976-126.976c61.44-65.536 98.304-151.552 98.304-245.76 0-196.608-159.744-360.448-360.448-360.448s-360.448 159.744-360.448 360.448 159.744 360.448 360.448 360.448c90.112 0 172.032-32.768 233.472-86.016l126.976 126.976c4.096 4.096 8.192 4.096 16.384 4.096s12.288 0 16.384-4.096C909.312 880.64 909.312 868.352 901.12 860.16zM512 806.912c-176.128 0-319.488-143.36-319.488-319.488s143.36-319.488 319.488-319.488 319.488 143.36 319.488 319.488S684.032 806.912 512 806.912z" p-id="2065"></path><path d="M651.264 466.944 532.48 466.944 532.48 348.16C532.48 335.872 520.192 327.68 512 327.68S491.52 335.872 491.52 348.16l0 118.784L372.736 466.944c-12.288 0-20.48 8.192-20.48 20.48s8.192 20.48 20.48 20.48L491.52 507.904l0 118.784c0 12.288 8.192 20.48 20.48 20.48s20.48-8.192 20.48-20.48l0-118.784 118.784 0c12.288 0 20.48-8.192 20.48-20.48S659.456 466.944 651.264 466.944z" p-id="2066"></path></svg>